<svg xmlns="http://www.w3.org/2000/svg" xmlns:xlink="http://www.w3.org/1999/xlink" width="401.876" height="102.2" viewBox="0 0 401.876 102.2"><defs><style>.a{fill:#fff;}.b{clip-path:url(#a);}</style><clipPath id="a"><path class="a" d="M0,53.337H401.876v-102.2H0Z"/></clipPath></defs><g class="b" transform="translate(0 48.863)"><g transform="translate(-0.001 -48.863)"><path class="a" d="M209.737,17.543V3.531H203.8V16.074c0,2.142-.094,5.754-5.541,5.754s-5.538-3.612-5.538-5.754V3.531h-5.936V17.543c0,2.449.305,8.444,11.474,8.444s11.474-5.994,11.474-8.444M184.945,34.549c-4.616,0-6.657,3.035-6.657,6.114,0,4.463,3.51,6.072,6.683,6.072a6.614,6.614,0,0,0,4.892-1.926h.065v1.449c0,1.56-.519,3.466-4.093,3.466-1.905,0-3.378-.249-3.7-1.79h-3.261c.272,3.1,3.33,3.918,7.042,3.918,5.3,0,7.136-2.537,7.136-5.392V34.819h-3.129v1.769h-.044c-.724-1.272-2.514-2.039-4.938-2.039m4.982,6.026a3.726,3.726,0,0,1-4.03,3.756c-3.282,0-4.346-1.945-4.346-3.71a3.765,3.765,0,0,1,4.076-3.675c1.606,0,4.3.747,4.3,3.629M178.258,14.792v-.063c2.479-.887,3.551-2.6,3.551-5.262,0-2.236-1.01-5.936-7.067-5.936H158.859V25.38h5.934V17.361h7.375c1.838,0,3.156.763,3.156,3.825,0,2.292.027,3.181.579,4.194h6.488c-1.042-1.1-1.132-3.675-1.132-4.744,0-2.144-.4-5.451-3-5.844m-2.753-4.376a2.65,2.65,0,0,1-2.845,2.782h-7.868V7.691h7.559c1.441,0,3.154.552,3.154,2.725M155.437,46.869h3.129V30.427h-3.129Zm-2.6-29.326V3.531H146.9V16.074c0,2.142-.09,5.754-5.536,5.754s-5.541-3.612-5.541-5.754V3.531h-5.936V17.543c0,2.449.305,8.444,11.476,8.444s11.472-5.994,11.472-8.444M130.008,34.549a5.791,5.791,0,0,0-4.74,2.127h-.044V34.865H122.1v12h3.123V40.414a3.451,3.451,0,0,1,3.74-3.468c2.579,0,3.01,1.475,3.01,2.767v7.155H135.1V38.716c0-3.238-2.516-4.166-5.1-4.166m-8.893-9.169h3V13.2h-11.14v3.794h5.294c-.7,3.612-3.213,4.836-6.455,4.836-5.388,0-7.281-3.98-7.281-7.373s1.893-7.375,7.281-7.375c2.142,0,4.681.793,5.568,3.606h6.611c-1.069-5.994-6.793-7.768-12.853-7.768-8.26,0-12.913,4.773-12.913,11.537,0,8.111,4.959,11.531,12.913,11.531,3.794,0,7.1-.914,9.182-3.15ZM96.6,34.413c-4.643,0-7.431,2.581-7.431,6.457,0,3.307,2.062,6.45,7.431,6.45.837,0,5.932-.067,6.66-5.049H100c-.655,1.7-1.314,2.646-3.738,2.646-2.692,0-3.823-1.966-3.823-4.047A3.851,3.851,0,0,1,96.6,36.812a3.162,3.162,0,0,1,3.328,2.267h3.261c-.657-4.053-4.777-4.666-6.588-4.666M89,25.38h6.39l-9.6-21.849H78.62L69.011,25.38h6.4l1.776-4.5H87.221ZM85.631,16.9H78.775L82.2,8.244ZM62.749,14.792v-.063c2.479-.887,3.549-2.6,3.549-5.262,0-2.236-1.008-5.936-7.069-5.936H43.35V25.38h5.936V17.361h7.373c1.836,0,3.152.763,3.152,3.825,0,2.292.031,3.181.581,4.194H66.88c-1.039-1.1-1.134-3.675-1.134-4.744,0-2.144-.4-5.451-3-5.844m-2.755-4.376A2.65,2.65,0,0,1,57.148,13.2H49.286V7.691h7.557c1.437,0,3.152.552,3.152,2.725M43.02,63.107c0,2.064,1.286,4.033,4.643,4.033.523,0,3.706-.042,4.16-3.156H49.786a2.093,2.093,0,0,1-2.336,1.661,2.306,2.306,0,0,1-2.391-2.537,2.4,2.4,0,0,1,2.6-2.533,1.979,1.979,0,0,1,2.081,1.418h2.037c-.412-2.533-2.987-2.918-4.118-2.918-2.9,0-4.643,1.615-4.643,4.033M42.361,40.87c0-3.311-2.062-6.457-7.429-6.457S27.5,37.559,27.5,40.87s2.062,6.45,7.429,6.45,7.429-3.144,7.429-6.45m-3.263,0c0,2.081-1.132,4.047-4.166,4.047s-4.166-1.966-4.166-4.047a3.782,3.782,0,0,1,4.166-4.058A3.782,3.782,0,0,1,39.1,40.87M33.2,25.38h6.394L29.985,3.531H22.823L13.215,25.38h6.4l1.776-4.5H31.422ZM29.832,16.9H22.978L26.4,8.244ZM3.708,25.38H9.46V3.531H.741L-5.748,19.26-12.233,3.531h-8.72V25.38H-15.2V7.873h.061L-8.224,25.38h4.955L3.648,7.873h.061ZM-25.31,34.413c-4.256,0-7.224,2.56-7.224,6.565,0,3.2,2.016,6.342,7.429,6.342,4.574,0,6.2-2.646,6.885-3.984h-3.4c-.611,1-1.518,1.721-3.577,1.721-3.1,0-4.01-2.06-4.081-3.4H-17.95v-.452c0-3.514-2.037-6.793-7.36-6.793m4.1,5.252h-8.065a3.887,3.887,0,0,1,4.012-3.123,3.817,3.817,0,0,1,4.053,3.123m-5.764-22.123V3.531h-5.936V16.074c0,2.142-.092,5.754-5.538,5.754s-5.538-3.612-5.538-5.754V3.531h-5.938V17.543c0,2.449.305,8.444,11.476,8.444s11.474-5.994,11.474-8.444M-53.557,25.38l-10.8-13.068,10.035-8.78H-62.31l-10.157,9.393V3.531H-78.4V25.38h5.938V18.892l3.455-2.968,7.438,9.456ZM-78.938,40.87c0,3.307,2.058,6.45,7.429,6.45.837,0,5.934-.067,6.655-5.049h-3.259c-.657,1.7-1.313,2.646-3.738,2.646-2.7,0-3.828-1.966-3.828-4.047a3.854,3.854,0,0,1,4.169-4.058,3.155,3.155,0,0,1,3.326,2.267h3.263c-.655-4.053-4.779-4.666-6.588-4.666-4.645,0-7.429,2.581-7.429,6.457m-12.225-8.195,1.47-1.125-.14-1.51-1.778-.728c-.791-.322-1.74-1.613-2.656-2.859-1.4-1.905-3.1-4.212-5.674-5.2,1.27-2.336,1.119-5.1.993-7.387a10.663,10.663,0,0,1,.27-4.281l.686-1.5.2-.5-.665-.987-2.186.228c-.9.09-2.179-.542-3.556-1.2l-.153-.073A15.33,15.33,0,0,0-110.815,3.6a7.906,7.906,0,0,0-.893.052C-111.7,1-113.131-1.355-114.315-3.3a10.287,10.287,0,0,1-1.776-3.9l-.161-2.451a4,4,0,0,1-.908-.393l-1.974,1.353c-.72.489-2.311.567-3.867.64-2.33.121-5.149.264-7.364,1.8-1.221-2.313-3.543-3.725-5.484-4.907a10.271,10.271,0,0,1-3.349-2.625l-1.355-2.261c-.069,0-.134.008-.207.008a4.725,4.725,0,0,1-.552-.031l-1.276,2.363c-.4.753-1.784,1.56-3.119,2.345-1.916,1.125-4.445,2.606-5.731,5.078-2.28-1.6-5.2-1.742-7.419-1.855-1.541-.075-3.137-.155-3.844-.636l-1.987-1.357-.916.611-.142,2.234a10.375,10.375,0,0,1-1.778,3.9c-1.186,1.947-2.617,4.3-2.608,6.961a7.437,7.437,0,0,0-.891-.054,15.334,15.334,0,0,0-6.473,1.96l-.113.054a9.986,9.986,0,0,1-3.413,1.215c-.077,0-.109,0-.157-.006l-2.165-.23-.7,1.058.878,1.926a10.4,10.4,0,0,1,.27,4.277c-.13,2.284-.284,5.047.991,7.394-2.566.985-4.263,3.286-5.67,5.193-.916,1.249-1.864,2.541-2.663,2.865l-1.767.724-.14,1.525,1.464,1.117a10.318,10.318,0,0,1,2.251,3.644c.958,2.062,2.115,4.558,4.323,6.026-1.782,2.127-2.192,5.03-2.508,7.249-.22,1.527-.445,3.11-.985,3.767l-1.071,1.3.211.519c.086.209.169.416.255.621l.2.481,1.6.255a10.333,10.333,0,0,1,3.7,2.129c1.711,1.282,4.01,3.006,6.693,3.244-.611,2.727.379,5.5,1.132,7.622.521,1.46,1.063,2.972.889,3.813l-.289,1.414.427.356c.236.2.477.4.717.586l.4.326,1.28-.437a12.226,12.226,0,0,1,4.311.161,24.748,24.748,0,0,0,3.832.389,9.076,9.076,0,0,0,3.47-.634c.761,2.656,2.907,4.616,4.535,6.1,1.142,1.046,2.324,2.125,2.564,2.951l.356,1.217.542.119c.356.075.715.153,1.073.222l.512.1.816-.872a10.294,10.294,0,0,1,3.855-1.88,14.8,14.8,0,0,0,5.806-3.1c1.772,2.355,4.589,3.319,6.919,4.114l.111.04A19.6,19.6,0,0,1-130,85.508l.4.213.341-.079c.4-.09.793-.184,1.184-.289l.339-.088.257-.374a22.858,22.858,0,0,1,1.537-1.9l.121-.138c1.571-1.8,3.648-4.175,4.087-7.245a9.208,9.208,0,0,0,3.2.531,24.978,24.978,0,0,0,3.876-.4,12,12,0,0,1,4.265-.155l1.2.414.4-.324c.259-.209.519-.418.776-.634l.427-.36-.276-1.339c-.169-.845.368-2.353.891-3.811.749-2.106,1.742-4.884,1.134-7.615,2.627-.218,4.769-1.815,6.687-3.246a10.309,10.309,0,0,1,3.7-2.135l1.554-.245.2-.473c.094-.222.184-.439.276-.659l.213-.519-1.044-1.274c-.54-.661-.766-2.238-.989-3.807-.312-2.194-.724-5.091-2.506-7.214,2.217-1.472,3.374-3.972,4.344-6.07a10.287,10.287,0,0,1,2.23-3.6m-.192-1.5-1.05.8A10.736,10.736,0,0,0-94.9,35.913c-1.056,2.282-2.317,4.995-4.955,6.112,2.294,1.876,2.736,5.007,3.085,7.482.247,1.719.475,3.338,1.173,4.194l.682.828c-.09.213-.178.429-.268.638l-1.029.161a10.641,10.641,0,0,0-4.062,2.28c-1.908,1.422-4.072,3.041-6.643,3.041a5.544,5.544,0,0,1-.674-.038c1.2,2.757.128,5.775-.717,8.14-.584,1.631-1.132,3.175-.91,4.252l.159.784c-.245.207-.5.41-.749.613l-.711-.243a11.305,11.305,0,0,0-4.645.115,24.061,24.061,0,0,1-3.681.383,7.418,7.418,0,0,1-4-1.029c.121,3.386-2.121,5.957-3.88,7.969a24.112,24.112,0,0,0-1.7,2.1l-.061.086c-.376.094-.761.188-1.144.278l-.088-.048a20.55,20.55,0,0,0-2.947-1.167c-2.543-.866-5.568-1.9-7.013-4.748-1.47,2.127-4.005,3.008-6.16,3.763a10.575,10.575,0,0,0-4.156,2.085l-.456.487c-.349-.067-.694-.138-1.04-.218l-.2-.673c-.305-1.058-1.512-2.163-2.79-3.33-1.828-1.673-4.145-3.79-4.426-6.727a7.347,7.347,0,0,1-4.1,1.092,24.3,24.3,0,0,1-3.677-.381,11.374,11.374,0,0,0-4.65-.119l-.784.272c-.232-.186-.464-.374-.692-.569l.176-.851c.222-1.083-.328-2.625-.914-4.258-.841-2.374-1.914-5.384-.713-8.14-2.8.312-5.246-1.454-7.318-3-1.431-1.067-2.778-2.075-4.056-2.276l-1.077-.172c-.084-.2-.165-.4-.247-.6l.7-.858c.7-.853.929-2.472,1.173-4.194.351-2.472.8-5.6,3.087-7.482-2.635-1.111-3.894-3.828-4.957-6.107a10.7,10.7,0,0,0-2.5-3.943l-1.039-.793c.013-.144.025-.289.04-.433l1.23-.5c1.019-.416,1.993-1.732,3.018-3.133,1.531-2.073,3.395-4.606,6.325-5.129-1.836-2.223-1.675-5.229-1.531-7.783a10.7,10.7,0,0,0-.349-4.654l-.653-1.435c.031-.05.063-.1.1-.149l1.575.165c1.125.117,2.566-.584,4.129-1.326a14.378,14.378,0,0,1,5.986-1.843,6.419,6.419,0,0,1,1.916.287c-.548-2.813,1-5.371,2.326-7.54.927-1.531,1.805-2.972,1.887-4.271l.113-1.746s0,0,0,0l1.445.987c.912.617,2.539.7,4.267.784,2.491.125,5.656.284,7.735,2.432.855-2.865,3.593-4.472,5.75-5.735,1.491-.876,2.9-1.7,3.422-2.673l.835-1.55.9,1.508c.669,1.117,2.11,1.989,3.633,2.916,2.146,1.3,4.673,2.836,5.5,5.553,2.033-2.081,5.1-2.232,7.695-2.363,1.728-.088,3.357-.169,4.267-.791l1.452-.993.111,1.759A10.641,10.641,0,0,0-115.467-2.3c1.32,2.171,2.87,4.721,2.324,7.54a6.465,6.465,0,0,1,1.918-.289,14.455,14.455,0,0,1,5.986,1.841c1.562.745,2.985,1.443,4.131,1.337l1.623-.172c.023.036.05.069.071.1l-.678,1.481a10.744,10.744,0,0,0-.349,4.656c.138,2.55.3,5.557-1.531,7.781,2.932.527,4.8,3.056,6.325,5.135,1.025,1.393,2,2.713,3.014,3.129l1.238.508c.015.14.027.28.04.418M-114.407,62.6a37.369,37.369,0,0,0,10.985-26.513A37.376,37.376,0,0,0-114.407,9.572,37.357,37.357,0,0,0-140.919-1.409,37.357,37.357,0,0,0-167.432,9.572a37.364,37.364,0,0,0-10.981,26.513A37.348,37.348,0,0,0-167.432,62.6,37.36,37.36,0,0,0-140.919,73.58,37.367,37.367,0,0,0-114.407,62.6m8.927-26.513a35.315,35.315,0,0,1-10.378,25.059,35.324,35.324,0,0,1-25.061,10.38,35.3,35.3,0,0,1-25.057-10.38,35.31,35.31,0,0,1-10.383-25.059,35.317,35.317,0,0,1,10.383-25.059A35.306,35.306,0,0,1-140.919.647a35.331,35.331,0,0,1,25.061,10.378A35.322,35.322,0,0,1-105.48,36.084M-116.77,54.57l2.3.209.393-.517-2.886-.209-1.328-1.019-.333.433,1.33,1.017.975,2.713.376-.489Zm2.322-2.06a1.589,1.589,0,0,0,2.037-.9,1.989,1.989,0,0,0-1.021-2.778,1.967,1.967,0,0,0-2.748.724,1.608,1.608,0,0,0-.094,1.447l-.517-.119-.165.3,1.893,1.031.862-1.577-.406-.22-.623,1.15a1.236,1.236,0,0,1-.546-1.795,1.474,1.474,0,0,1,2.108-.452,1.507,1.507,0,0,1,.853,2.066,1.11,1.11,0,0,1-1.374.638Zm1.533-4.631a1.966,1.966,0,0,0,2.669-1.155,1.966,1.966,0,0,0-1.387-2.558,1.968,1.968,0,0,0-2.671,1.155,1.968,1.968,0,0,0,1.389,2.558m.176-.515a1.494,1.494,0,0,1-1.129-1.895,1.492,1.492,0,0,1,2.056-.789,1.492,1.492,0,0,1,1.132,1.893,1.491,1.491,0,0,1-2.058.791m.149-6.5,3.577.676.1-.535-4.028-.761-.5,2.667.452.086Zm4.093-3.4a1.966,1.966,0,0,0-2.062-2.052,1.968,1.968,0,0,0-2.228,1.872,1.968,1.968,0,0,0,2.064,2.052,1.964,1.964,0,0,0,2.225-1.872m-.456-.019a1.49,1.49,0,0,1-1.744,1.345c-.828-.033-1.671-.485-1.631-1.483a1.492,1.492,0,0,1,1.746-1.349c.826.033,1.669.487,1.629,1.487m-3.719-3.073,4.068-.479-.059-.512-3.3.389,0-.01,3.05-2.533-.069-.575-4.07.477.063.515,3.263-.385v.013l-3.014,2.508Zm-.615-4.422,3.945-1.117-.153-.525-1.694.481-.59-2.077,1.7-.481-.149-.523-3.941,1.119.146.523,1.807-.512.59,2.077-1.807.512Zm1.862-7.4A1.946,1.946,0,0,0-114.2,21.7a1.881,1.881,0,0,0-1.14,2.617,1.67,1.67,0,0,0,2.238.92l-.232-.5a1.159,1.159,0,0,1-1.571-.575c-.412-.891.121-1.6.97-1.989a1.447,1.447,0,0,1,2.089.563,1.082,1.082,0,0,1-.305,1.41l.228.494a1.569,1.569,0,0,0,.5-2.092m-2-2.688.385-.251-1.554-2.366-3.422,2.253,1.562,2.378.385-.253-1.265-1.922,1.186-.78,1.167,1.782.387-.253-1.171-1.78,1.088-.715Zm-2.315-3.416.345-.3-2.15-2.472-.347.3.9,1.033-2.75,2.386.362.412,2.742-2.389Zm-4.6-4.765.28-.364L-122.2,9.687l-2.5,3.254.433.33,1.144-1.489,1.491,1.146.28-.366-1.493-1.146.793-1.033Zm-4.173-1.142a1.971,1.971,0,0,0-.676-2.832,1.968,1.968,0,0,0-2.757.929,1.963,1.963,0,0,0,.674,2.828,1.968,1.968,0,0,0,2.759-.924m-.477-.266a1.49,1.49,0,0,1-2.058.789,1.49,1.49,0,0,1-.42-2.163,1.49,1.49,0,0,1,2.058-.789,1.49,1.49,0,0,1,.42,2.163m-5.591-4.388.128-.439-2.717-.789-1.14,3.934,2.736.791.128-.439-2.211-.64.4-1.362,2.043.592.126-.439-2.041-.594.36-1.251Zm-5.028-.448.54.071a1.592,1.592,0,0,0-1.569-1.579,1.987,1.987,0,0,0-2.223,1.956A1.965,1.965,0,0,0-137.2,8.2a1.6,1.6,0,0,0,1.38-.433l.079.525.341.044.278-2.138-1.78-.234-.061.454,1.3.172a1.233,1.233,0,0,1-1.477,1.155,1.473,1.473,0,0,1-1.18-1.8c.115-.872.634-1.671,1.619-1.544a1.112,1.112,0,0,1,1.09,1.052m-2.119,9.8-2.071.023v0l-.661-1.96,0,.013-.613,1.964,0,0-2.071.023,1.688,1.2-.617,1.972,0,.006,1.663-1.234,1.684,1.192.006.008-.663-1.964,0,0Zm-2.7.83,0,0,0,0Zm0,0h-.008Zm.017-.01-.008,0h0Zm.019.021-.031-.01h0v0h0l0,0v0h0Zm-2.372-8.2,2.847-.056-.008-.46-2.3.048L-142.264,6l2.129-.044-.008-.458-2.131.044-.025-1.3,2.286-.046-.01-.458-2.828.054Zm-3.52.458,2.69-.4-.071-.454-2.146.322-.54-3.6-.54.079Zm-3.445.891,2.61-.74-.123-.441-2.087.592-.993-3.5-.525.149Zm-1.809-1.585A1.967,1.967,0,0,0-154.22,6.5a1.969,1.969,0,0,0-.908,2.765,1.969,1.969,0,0,0,2.673,1.152,1.968,1.968,0,0,0,.908-2.767m-1.1,2.349a1.493,1.493,0,0,1-1.985-.958,1.492,1.492,0,0,1,.6-2.123,1.493,1.493,0,0,1,1.987.958,1.494,1.494,0,0,1-.6,2.123m-3.156.224-.454.3a1.165,1.165,0,0,1-.333,1.64c-.82.542-1.6.119-2.11-.659a1.445,1.445,0,0,1,.238-2.15,1.08,1.08,0,0,1,1.441.092l.454-.3a1.566,1.566,0,0,0-2.142-.176,1.943,1.943,0,0,0-.425,2.87,1.884,1.884,0,0,0,2.759.734,1.668,1.668,0,0,0,.571-2.347m-.42,5.432.878.623-.322,1.027v0l.866-.644.876.621,0,0-.345-1.023v0l.866-.642-1.077.01-.347-1.019,0,.006-.318,1.023,0,0Zm1.416.4,0,0h0l0,0h0v0h0l0,0h0v0Zm-.008,0h0l0,0Zm.01,0,0,0h0Zm5.35-.4.881.623-.322,1.027,0,0,.866-.644.876.621,0,0-.345-1.023v0l.866-.642-1.079.01-.343-1.019,0,.006-.318,1.023-1.077.01Zm1.416.4,0,0,0,0v0l0,0h0v0h0v0h0Zm-.008,0h0l0,0h0Zm13.794-.4.881.623-.32,1.027v0l.864-.644.874.621.006,0-.345-1.023v0l.864-.642-1.077.01-.343-1.019,0,.006-.32,1.023v0Zm1.418.4h0l0,0Zm-.01,0h0l0,0h0Zm6.944-1.441v.006l-.32,1.023,0,0-1.077.013.878.623-.322,1.027v0l.866-.644.874.621,0,0-.345-1.023,0,0,.864-.642-1.077.01Zm.015,1.439h0v0h0l0,0h0v0h0l0,0h0v0Zm-.006,0h0v0Zm-32.549,7.134h-1.186V53.679c5.942.023,12.47-3.37,17.806-1.226h1.583c6.124-1.926,11.847.659,18.015,1.226V23.188H-123.4v0c-5.779-.529-11.14-2.949-16.879-1.146l-1.481,0c-5-2.008-11.113,1.171-16.676,1.148Zm0,.989c5.612-.362,11.635-3.19,16.62-1.188h1.583c5.731-1.8,11.11.347,16.833,1.094V52.648c-5.779-.529-11.14-2.949-16.879-1.146h-1.481c-5-2.008-11.113,1.169-16.676,1.146V24.177Zm15.662,1.339c-5.147-1.546-7.95.584-13.89,1.033v.259c4.677-.3,9.69-2.56,13.842-.954h.259v-.339Zm-13.89,2.826V28.6c4.677-.3,9.69-2.558,13.842-.952h.259v-.343h-.211c-5.147-1.541-7.95.588-13.89,1.035m0,1.677v.257c4.677-.295,9.69-2.556,13.842-.952h.259v-.341h-.211c-5.147-1.544-7.95.586-13.89,1.035m0,1.753v.259c4.677-.3,9.69-2.558,13.842-.954h.259v-.341l-.211,0c-5.147-1.546-7.95.584-13.89,1.033m0,1.753v.259c4.677-.3,9.69-2.558,13.842-.954h.259v-.339h-.211c-5.147-1.544-7.95.586-13.89,1.033m0,1.753v.259c4.677-.295,9.69-2.558,13.842-.952h.259v-.341h-.211c-5.147-1.544-7.95.586-13.89,1.033m0,1.753v.261c4.677-.3,9.69-2.56,13.842-.952h.259V36h-.211c-5.147-1.544-7.95.586-13.89,1.033m0,1.755v.259c4.677-.3,9.69-2.56,13.842-.952h.259v-.343h-.211c-5.147-1.544-7.95.586-13.89,1.035m0,1.753V40.8c4.677-.3,9.69-2.558,13.842-.952h.259V39.5h-.211c-5.147-1.541-7.95.588-13.89,1.035m0,1.755v.257c4.677-.3,9.69-2.558,13.842-.952h.259v-.343h-.211c-5.147-1.541-7.95.588-13.89,1.037m0,1.753V44.3c4.677-.3,9.69-2.556,13.842-.952h.259V43.01h-.211c-5.147-1.541-7.95.588-13.89,1.035m0,1.753v.259c4.677-.3,9.69-2.558,13.842-.954h.259v-.341h-.211c-5.147-1.541-7.95.588-13.89,1.035m0,1.753v.259c4.677-.3,9.69-2.558,13.842-.952h.259v-.341h-.211c-5.147-1.544-7.95.586-13.89,1.033m0,1.755v.259c4.677-.3,9.69-2.56,13.842-.954h.228v-.339h-.18c-5.147-1.546-7.95.584-13.89,1.033m17.389-.922h-.18v.341h.23c4.15-1.606,9.165.655,13.842.952v-.259c-5.94-.448-8.745-2.579-13.892-1.033m13.976-.573V47.55c-5.942-.448-8.745-2.577-13.892-1.033h-.211v.341h.259c4.15-1.606,9.167.655,13.844.952m0-1.753V45.8c-5.942-.448-8.745-2.577-13.892-1.035h-.211V45.1h.259c4.15-1.6,9.167.657,13.844.954m0-1.755v-.257c-5.942-.448-8.745-2.577-13.892-1.035h-.211v.341h.259c4.15-1.6,9.167.655,13.844.952m0-1.753v-.257c-5.942-.45-8.745-2.579-13.892-1.037h-.211V41.6h.259c4.15-1.606,9.167.655,13.844.952m0-1.753v-.259c-5.942-.45-8.745-2.577-13.892-1.035h-.211v.343h.259c4.15-1.606,9.167.655,13.844.952m0-1.753v-.261c-5.942-.448-8.745-2.577-13.892-1.033h-.211v.343h.259c4.15-1.608,9.167.655,13.844.952m0-1.753V37.03c-5.942-.448-8.745-2.577-13.892-1.033h-.211v.343h.259c4.15-1.608,9.167.655,13.844.952m0-1.755v-.259c-5.942-.448-8.745-2.577-13.892-1.033h-.211v.341h.259c4.15-1.606,9.167.655,13.844.952m0-1.753v-.259c-5.942-.448-8.745-2.577-13.892-1.033h-.211v.339h.259c4.15-1.6,9.167.657,13.844.954m0-1.755v-.257c-5.942-.45-8.745-2.579-13.892-1.035h-.211v.341h.259c4.15-1.6,9.167.657,13.844.952m0-1.753v-.257c-5.942-.45-8.745-2.579-13.892-1.035h-.211v.341h.259c4.15-1.6,9.167.657,13.844.952m0-1.675v-.259c-5.942-.448-8.745-2.577-13.892-1.035h-.211v.343h.259c4.15-1.606,9.167.655,13.844.952m0-1.792v-.259c-5.942-.45-8.745-2.579-13.892-1.033h-.211v.339h.259c4.15-1.606,9.167.655,13.844.954m-36.073-10.042a1.44,1.44,0,0,0-.042-2.255l-1.9-1.795-.377.4,1.9,1.792a.986.986,0,0,1,.082,1.544,1.018,1.018,0,0,1-1.592.059l-1.9-1.8-.374.4,1.9,1.8a1.453,1.453,0,0,0,2.3-.14M-165.3,18.2a.979.979,0,0,0-.452-1.175,1.089,1.089,0,0,0-1.592.416l-1.094,1.59,3.376,2.324.312-.448-1.443-1,.755-1.1c.3-.433.634-.322,1-.14.376.163.692.483.916.45l.347-.5a2.085,2.085,0,0,1-1.069-.441c-.353-.195-.7-.314-1.046.027Zm-.627.515-.642.935-1.18-.807.77-1.117a.646.646,0,0,1,.989-.2c.494.339.353.772.063,1.192M-167,21.732l-2.357-1.136-.238.492,2.357,1.136a.986.986,0,0,1,.546,1.447,1.024,1.024,0,0,1-1.5.54l-2.359-1.138-.236.494,2.359,1.134a1.452,1.452,0,0,0,2.152-.83A1.441,1.441,0,0,0-167,21.732m-3.229,3.859a1.591,1.591,0,0,0-1.8,1.3,1.988,1.988,0,0,0,1.583,2.5,1.964,1.964,0,0,0,2.533-1.286,1.6,1.6,0,0,0-.211-1.431l.529,0,.1-.326-2.069-.613-.506,1.721.439.132.37-1.253a1.23,1.23,0,0,1,.91,1.636,1.473,1.473,0,0,1-1.964.885c-.843-.249-1.552-.889-1.272-1.841a1.111,1.111,0,0,1,1.209-.91Zm1.56,4.871-4.273,1.05-.079.6,3.853,2.125.073-.556-1.163-.617.228-1.717,1.282-.282Zm-1.841.989-.182,1.378-1.8-.941v-.01Zm-2.759,4.708.033,1.928,4.1-.069-.01-.544-1.749.027-.023-1.33c-.008-.527.33-.632.73-.694.4-.086.843-.008,1.006-.165l-.008-.611a2.071,2.071,0,0,1-1.127.261c-.4.044-.749.151-.832.627h-.01a.988.988,0,0,0-1.052-.694c-.653.01-1.067.5-1.054,1.263m.462.021a.644.644,0,0,1,.688-.738c.6-.01.736.422.745.933l.017,1.136-1.429.023Zm3.7,2.594-3.792,2.234.094.594,4.3.927-.088-.556-1.295-.253-.276-1.711,1.148-.64Zm-1.257,2.847-2-.383v-.01l1.78-.977Zm2.016,1.6-3.88,1.311.24.709,3.677.121-2.849,2.328.238.707,3.882-1.314-.165-.487-3.227,1.094-.006-.013,2.819-2.3-.148-.441-3.639-.119,0-.01,3.229-1.092Zm.512,5.637-2.3,1.253.259.477,2.3-1.251a.986.986,0,0,1,1.493.4,1.021,1.021,0,0,1-.439,1.533l-2.3,1.253.259.477,2.3-1.251a1.453,1.453,0,0,0,.581-2.232,1.44,1.44,0,0,0-2.156-.661m2.4,5.72L-167.8,54.2l.427.563,2.882.414-1.625,1.238.33.435,3.261-2.481-.331-.435L-164,54.8l-.92-.157.753-2.432-.416-.548Zm9.849,3.7a.867.867,0,0,0,.9.95.792.792,0,0,0,.845-.743h-.406a.439.439,0,0,1-.439.42c-.351,0-.487-.322-.487-.627,0-.563.295-.673.506-.673a.392.392,0,0,1,.42.347h.406a.745.745,0,0,0-.83-.669.891.891,0,0,0-.91,1m2.836.9V58.086a.452.452,0,0,1,.448-.487c.238,0,.354.125.362.414v1.161h.4V57.9a.583.583,0,0,0-.65-.627.645.645,0,0,0-.552.295h-.01v-.947h-.4v2.55Zm-.443,5.725.878.625-.322,1.027v0l.866-.642.876.619,0,0-.345-1.023h0l.864-.642-1.077.013-.347-1.023,0,.006-.318,1.023h0Zm1.416.4h0v0h0l.006,0,0,0h0v0h0Zm-.008,0h0v0Zm1.569-6.078a.959.959,0,0,0,.638-.224.275.275,0,0,0,.314.224,1.161,1.161,0,0,0,.257-.044v-.284a.65.65,0,0,1-.1.006c-.073,0-.1-.038-.1-.138v-.947c0-.389-.376-.535-.736-.538-.41,0-.812.142-.841.617h.406c.019-.2.18-.295.41-.295.163,0,.381.038.381.249,0,.241-.261.207-.554.261-.341.04-.709.113-.709.575a.56.56,0,0,0,.632.538m-.226-.554c0-.215.157-.278.333-.31a1.334,1.334,0,0,0,.5-.111v.3c0,.259-.276.349-.456.349-.142,0-.374-.05-.374-.232m2.418-1.341h-.383v1.847H-148v-.881c0-.406.222-.63.5-.63.059,0,.117.013.176.017v-.391a.833.833,0,0,0-.155-.013.6.6,0,0,0-.538.408h-.006Zm.249,6.9v.51h.975v2.8h.711v-3.97h-.529c-.094.479-.613.663-1.157.659m1.512-5.009a.954.954,0,0,0,.64-.224c.031.165.151.224.314.224a1.1,1.1,0,0,0,.255-.044v-.284a.612.612,0,0,1-.1.006c-.075,0-.1-.038-.1-.138v-.947c0-.389-.379-.535-.74-.535-.4,0-.809.14-.837.615h.408c.017-.2.178-.295.406-.295.165,0,.381.038.381.249,0,.241-.261.207-.552.261-.341.04-.709.113-.709.575a.559.559,0,0,0,.63.538m.151-.322c-.142,0-.374-.05-.374-.232,0-.215.157-.278.333-.31a1.364,1.364,0,0,0,.5-.111v.3c0,.259-.28.349-.458.349m1.573-.627a.865.865,0,0,0,.893.95.794.794,0,0,0,.847-.743h-.408a.437.437,0,0,1-.439.42c-.353,0-.489-.322-.489-.627,0-.563.3-.673.508-.673a.391.391,0,0,1,.42.347h.408a.748.748,0,0,0-.832-.669.891.891,0,0,0-.908,1m2.485,7.438.01.013c-.04.523-.119,1.362-.82,1.362a.555.555,0,0,1-.579-.544h-.648a1.151,1.151,0,0,0,1.2,1.081c1.123,0,1.5-1.1,1.5-2.054,0-1.155-.28-2.073-1.4-2.073a1.279,1.279,0,0,0-1.368,1.353,1.225,1.225,0,0,0,1.253,1.341.956.956,0,0,0,.858-.479m-.052-.868a.745.745,0,0,1-.72.837c-.471,0-.692-.4-.692-.837s.222-.807.692-.807a.729.729,0,0,1,.72.807m.525-6.225v-.985h.368v-.3l-.368,0v-.552h-.408v.554h-.307v.3h.307v1.088c.008.305.088.471.51.471a2.315,2.315,0,0,0,.266-.023v-.312a.8.8,0,0,1-.171.013c-.182,0-.2-.084-.2-.251m.929-.366a.875.875,0,0,0,.9.97.808.808,0,0,0,.835-.627h-.383a.43.43,0,0,1-.452.305.489.489,0,0,1-.494-.544h1.353a.91.91,0,0,0-.87-1.079.907.907,0,0,0-.891.975m.408-.163a.482.482,0,0,1,.483-.489.484.484,0,0,1,.464.489Zm-.218,8.287a1.26,1.26,0,0,0,1.4,1.249,1.261,1.261,0,0,0,1.4-1.249.946.946,0,0,0-.726-.97v-.01a.833.833,0,0,0,.561-.816c0-.678-.448-1.083-1.236-1.086s-1.236.408-1.236,1.086a.835.835,0,0,0,.561.816v.01a.946.946,0,0,0-.724.97m2.023-1.765a.565.565,0,0,1-.623.584.565.565,0,0,1-.623-.584.579.579,0,0,1,.623-.6.579.579,0,0,1,.623.6m-1.376,1.765a.688.688,0,0,1,.753-.7.689.689,0,0,1,.755.7.7.7,0,0,1-.755.736.7.7,0,0,1-.753-.736m2.5-8.711c.056,0,.117.013.176.017v-.391a.825.825,0,0,0-.153-.013.593.593,0,0,0-.54.408h-.006v-.358h-.383v1.847h.4l0-.881c0-.406.22-.63.5-.63m2.066-.655h.406v-.385h-.406Zm.406.32-.406,0v1.847h.406Zm-.241,6.243-1.7,2.389V66.6h1.7v.939h.613V66.6h.51V66.09h-.51V63.572Zm-.01.772h.01V66.09h-1.2Zm.954-5.764c.006.435.349.642.818.642.381,0,.822-.161.822-.6,0-.364-.3-.471-.594-.54s-.6-.1-.6-.3c0-.159.22-.188.339-.188.176,0,.337.054.374.247h.423a.679.679,0,0,0-.768-.569c-.337,0-.772.125-.772.529,0,.374.293.483.59.546s.594.092.607.307-.259.241-.412.241c-.218,0-.4-.086-.418-.32Zm3.669.594h.4V56.626h-.4Zm0-2.55,1.215.385h.408v-.385h-.408Zm.41.32h-.408v1.845h.408Zm-2.225,7.569.878.625-.32,1.027,0,0,.868-.642.874.619,0,0-.345-1.023h0l.866-.642-1.077.013-.345-1.023,0,.006L-130,64.887h0Zm1.42.4h0l.006,0Zm-.006,0,0,0v0Zm-.006,0h0v0Zm1.736-7.971-.3,0v.305h.3v1.541h.408V57.632h.345v-.305l-.345,0v-.192c0-.151.09-.19.2-.19a.592.592,0,0,1,.188.023v-.318a1.075,1.075,0,0,0-.287-.027c-.264,0-.51.082-.51.55Zm1.272.922a.876.876,0,0,0,.9.97.8.8,0,0,0,.832-.627h-.385a.423.423,0,0,1-.448.305.492.492,0,0,1-.5-.544h1.357a.912.912,0,0,0-.868-1.079.909.909,0,0,0-.9.975m.406-.163a.485.485,0,0,1,.489-.489.486.486,0,0,1,.462.489ZM-62.745,40.87c0,3.307,2.06,6.45,7.429,6.45s7.425-3.144,7.425-6.45-2.058-6.457-7.425-6.457-7.429,3.146-7.429,6.457m3.261,0a3.784,3.784,0,0,1,4.168-4.058,3.78,3.78,0,0,1,4.164,4.058c0,2.081-1.129,4.047-4.164,4.047s-4.168-1.966-4.168-4.047m17.506-10.441H-45.1V46.871h3.125Zm6.524,0h-3.129V46.871h3.129Zm31.363,14.38v1.449c0,1.56-.521,3.466-4.1,3.466-1.9,0-3.374-.249-3.692-1.79h-3.261c.272,3.1,3.33,3.918,7.044,3.918,5.3,0,7.134-2.537,7.134-5.392V34.819H-4.091v1.769h-.044c-.724-1.272-2.514-2.039-4.938-2.039-4.62,0-6.657,3.035-6.657,6.114,0,4.463,3.51,6.072,6.683,6.072a6.611,6.611,0,0,0,4.892-1.926Zm0-4.233a3.727,3.727,0,0,1-4.03,3.756c-3.284,0-4.346-1.945-4.346-3.71a3.764,3.764,0,0,1,4.076-3.675c1.606,0,4.3.747,4.3,3.629m6.049.4c0,3.2,2.016,6.342,7.429,6.342,4.574,0,6.2-2.646,6.883-3.984h-3.4c-.613,1-1.518,1.721-3.579,1.721-3.1,0-4.007-2.06-4.079-3.4H16.542v-.452c0-3.514-2.037-6.793-7.36-6.793-4.256,0-7.224,2.56-7.224,6.565m3.259-1.314a3.886,3.886,0,0,1,4.012-3.123,3.823,3.823,0,0,1,4.053,3.123Zm43.915-4.8v-.929c0-1.09.251-1.426,1.677-1.426a14.236,14.236,0,0,1,1.608.092V30.335c-.726-.046-1.452-.088-2.811-.088-3.259,0-3.6,1.744-3.6,3.077v1.541H43.538v2.263h2.468v9.74h3.125v-9.74h3.286V34.865ZM57.4,56.584H55.448V66.86H57.4V62.823a2.153,2.153,0,0,1,2.334-2.165c1.615,0,1.885.918,1.885,1.728V66.86h1.951v-5.1c0-2.023-1.569-2.6-3.183-2.6a3.615,3.615,0,0,0-2.96,1.328H57.4Zm3.846-19.456h2.493v6.388c0,2.263.293,3.629,4.1,3.629a15.939,15.939,0,0,0,2.4-.186V44.7c-.749.025-1.472.046-2.242.046-1.067,0-1.132-.747-1.132-2.127V37.128h3.259V34.865H66.866V31.15H63.741v3.715H61.248ZM67.24,64.793c0,1.47,1.1,2.347,3.056,2.347,2.194,0,3.144-.665,3.526-1.033.054.287.195.966,1.468.966a5.977,5.977,0,0,0,1.389-.172v-1.37a5.045,5.045,0,0,1-.636.042.378.378,0,0,1-.427-.427V61.593c0-.977-.113-2.518-4.035-2.518-2.221,0-3.677.607-3.961,2.575h1.91c.073-.837.766-1.247,2.052-1.247,1.134,0,2.125.213,2.125,1.075,0,.581-.3.68-3.1.95-1.247.115-3.367.3-3.367,2.366m2.035-.071c0-.638.353-.96,1.83-1.132a9.444,9.444,0,0,0,2.558-.466v.719c0,1.657-1.769,2.056-2.815,2.056-.667,0-1.573-.186-1.573-1.178m10.433-17.4c4.574,0,6.2-2.646,6.883-3.984h-3.4c-.611,1-1.516,1.721-3.577,1.721-3.1,0-4.01-2.06-4.079-3.4H86.861v-.452c0-3.514-2.035-6.793-7.358-6.793-4.261,0-7.224,2.56-7.224,6.565,0,3.2,2.012,6.342,7.429,6.342m-4.171-7.655a3.881,3.881,0,0,1,4.012-3.123A3.817,3.817,0,0,1,83.6,39.665Zm6.352,19.69H79.936v7.5h1.954V63.233a2.209,2.209,0,0,1,2.393-2.263,3.828,3.828,0,0,1,1.244.182v-1.92a4.451,4.451,0,0,0-.778-.073,3.132,3.132,0,0,0-2.834,1.654h-.025Zm6.68,5.438c0,1.47,1.1,2.347,3.056,2.347,2.194,0,3.144-.665,3.528-1.033.054.287.2.966,1.468.966a5.941,5.941,0,0,0,1.387-.172v-1.37a5.011,5.011,0,0,1-.634.042.378.378,0,0,1-.427-.427V61.593c0-.977-.113-2.518-4.033-2.518-2.225,0-3.681.607-3.964,2.575h1.91c.073-.837.763-1.247,2.054-1.247,1.132,0,2.123.213,2.123,1.075,0,.581-.3.68-3.1.95-1.247.115-3.367.3-3.367,2.366m2.037-.071c0-.638.353-.96,1.828-1.132A9.464,9.464,0,0,0,95,63.124v.719C95,65.5,93.226,65.9,92.18,65.9c-.669,0-1.573-.186-1.573-1.178m10.337-1.615c0,2.064,1.284,4.033,4.639,4.033.521,0,3.708-.042,4.16-3.156h-2.037a2.093,2.093,0,0,1-2.336,1.661,2.308,2.308,0,0,1-2.393-2.537,2.406,2.406,0,0,1,2.606-2.533,1.973,1.973,0,0,1,2.079,1.418H109.7c-.412-2.533-2.989-2.918-4.12-2.918-2.9,0-4.639,1.615-4.639,4.033m8.067-22.694a3.448,3.448,0,0,1,3.736-3.468c2.585,0,3.016,1.475,3.016,2.767v7.155h3.125V38.716c0-3.238-2.516-4.166-5.1-4.166a5.775,5.775,0,0,0-4.733,2.127h-.046V30.429h-3.125v16.44h3.125Zm4.965,18.941H112.42v1.416h1.556v3.993c0,1.416.186,2.261,2.56,2.261a10.247,10.247,0,0,0,1.5-.109V65.5c-.469.015-.92.031-1.4.031-.669,0-.711-.473-.711-1.334V60.771h2.039V59.355h-2.039v-2.32h-1.951Zm7.318,3.819c0,2,1.261,3.966,4.645,3.966a4.384,4.384,0,0,0,4.3-2.487h-2.123a2.294,2.294,0,0,1-2.24,1.075,2.268,2.268,0,0,1-2.548-2.127h7.078v-.28c0-2.2-1.274-4.246-4.6-4.246-2.663,0-4.516,1.6-4.516,4.1m2.037-.814a2.427,2.427,0,0,1,2.5-1.958,2.392,2.392,0,0,1,2.537,1.958Zm12.784-3.006h-1.954v7.5h1.954V63.233a2.207,2.207,0,0,1,2.391-2.263,3.843,3.843,0,0,1,1.249.182v-1.92a4.516,4.516,0,0,0-.78-.073,3.126,3.126,0,0,0-2.832,1.654h-.027Zm9.109-12.035c5.365,0,7.429-3.144,7.429-6.45s-2.064-6.457-7.429-6.457S137.8,37.559,137.8,40.87s2.06,6.45,7.427,6.45m-4.168-6.45c0-2.085,1.132-4.058,4.168-4.058a3.782,3.782,0,0,1,4.166,4.058c0,2.081-1.132,4.047-4.166,4.047s-4.168-1.966-4.168-4.047M152.52,56.584h-1.954v1.583h1.954Zm0,2.771h-1.954v7.5h1.954Zm5.789,5.154h-2.123c.071,2.294,2.6,2.631,4.2,2.631,2.324,0,4.15-.648,4.15-2.558,0-1.744-1.615-1.983-4.079-2.336-1.885-.27-2.066-.368-2.066-.981,0-.393.592-.862,1.7-.862.665,0,1.968.125,2.127,1.247h2.033c-.113-2.4-2.9-2.575-4.062-2.575-1.261,0-3.75.28-3.75,2.418,0,1.713,1.217,1.983,3.537,2.294,2.112.28,2.437.483,2.437,1.058,0,.711-1.063.966-2.037.966-.711,0-2.014-.167-2.069-1.3m10.47-17.189c5.367,0,7.427-3.144,7.427-6.45s-2.06-6.457-7.427-6.457-7.431,3.146-7.431,6.457,2.062,6.45,7.431,6.45m-4.171-6.45c0-2.085,1.136-4.058,4.171-4.058a3.781,3.781,0,0,1,4.164,4.058c0,2.081-1.132,4.047-4.164,4.047s-4.171-1.966-4.171-4.047m12.936,15.714h-1.951V66.86h1.951Zm6.055,0h-1.949v1.583H183.6Zm0,2.771h-1.949v7.5H183.6Zm4.645,0H186.7v1.416h1.541V66.86H190.2V60.771h2.054V59.355H190.2V58.78c0-.68.153-.893,1.046-.893a9.54,9.54,0,0,1,1.008.052V56.527c-.452-.031-.91-.056-1.761-.056-2.033,0-2.246,1.09-2.246,1.924Zm10.019-24.49h-3.4l5.595,11.8-.7,1.447a1.736,1.736,0,0,1-1.813.929c-.68,0-1.316-.021-1.562-.046v2.4c.611.021,1.426.042,1.949.042,2.6,0,3.37-.383,4.321-2.443L209.2,34.865h-3.326l-3.763,8.584Zm-3.211,28.309c0,2,1.261,3.966,4.643,3.966a4.375,4.375,0,0,0,4.3-2.487h-2.123A2.687,2.687,0,0,1,197.1,63.6h7.074v-.28c0-2.2-1.272-4.246-4.6-4.246-2.663,0-4.516,1.6-4.516,4.1m2.041-.814a2.422,2.422,0,0,1,2.5-1.958,2.389,2.389,0,0,1,2.533,1.958Z" transform="translate(192.142 16.071)"/></g></g></svg>